# xmcd
#
# Track frame offsets:
#	150
#	12699
#	32022
#	57810
#	80501
#	101256
#	119343
#	138576
#	160323
#	178410
#	204508
#	225496
#	246209
#	264742
#
# Disc length: 3807 seconds
#
# Revision: 0
# Processed by: cddbd v1.5.2PL0 Copyright (c) Steve Scherf et al.
# Submitted via: EasyCDDAExtractor 11.0.3.1
#
DISCID=c10edd0e
DTITLE=Various Artist - Strictly Steppin Vol. 4
DYEAR=2007
DGENRE=r&B
TTITLE0=Michael Jackson - Don't Just Walk Away
TTITLE1=Elaine Elias - Secrets (Crazy Bout You)
TTITLE2=D. J. Calvin - Late Night Cruise
TTITLE3=Will Downing - Fantasy
TTITLE4=Peabo Bryson - Heavenly
TTITLE5=Will Downing - Satisfy You
TTITLE6=Areatha Franklin w/Fantasia - Put You Up On Game
TTITLE7=Jay-Z - American Dreamin
TTITLE8=Kanye West - Flash Light
TTITLE9=Jeffree - Take My Love
TTITLE10=Fesu - Good Ole Days
TTITLE11=Lloyd - Valentine
TTITLE12=Jabari Grover - Everything's Gonna Be Alright
TTITLE13=James Brown - Super Bad (Slide)
EXTD=
EXTT0=
EXTT1=
EXTT2=
EXTT3=
EXTT4=
EXTT5=
EXTT6=
EXTT7=
EXTT8=
EXTT9=
EXTT10=
EXTT11=
EXTT12=
EXTT13=
PLAYORDER=
